<svg xmlns="http://www.w3.org/2000/svg" xmlns:xlink="http://www.w3.org/1999/xlink" width="204.641" height="176.649" viewBox="0 0 204.641 176.649"><g transform="translate(0 -20.518)"><path d="M102.321,197.167a16.447,16.447,0,0,1-11.188-4.374l-71.407-65.93a61.3,61.3,0,0,1,82.6-90.59,61.3,61.3,0,0,1,82.6,90.591L113.89,192.429a16.385,16.385,0,0,1-11.569,4.738Z" fill="#57DCDD"/><path d="M191.022,20.518A61.436,61.436,0,0,0,150,36.272V197.167a16.384,16.384,0,0,0,11.569-4.738L232.6,126.863A61.3,61.3,0,0,0,191.022,20.518Z" transform="translate(-47.679)" fill="url(#a)"/><path d="M126.333,140.015a6,6,0,0,0-4.953,2.617l-11.424,16.748L97.131,114.665a6,6,0,0,0-11.066-1.145l-13.98,26.494H11.248A61.359,61.359,0,0,0,19.9,152H75.7a6,6,0,0,0,5.3-3.2l8.71-16.509,12.236,42.66a6,6,0,0,0,10.716,1.725L129.5,152H191.9a61.374,61.374,0,0,0,8.648-11.991h-74.21Z" transform="translate(-3.575 -28.545)" fill="#3a4e93"/><path d="M170.437,153.851a6,6,0,0,0-4.953,2.617L154.06,173.215,150,159.06v33.795a5.992,5.992,0,0,0,6.771-2.334l16.835-24.68H236a61.375,61.375,0,0,0,8.648-11.991h-74.21Z" transform="translate(-47.679 -42.381)" fill="#3a4e93"/></g></svg>