<svg height="496pt" viewBox="0 0 496 496" width="496pt" xmlns="http://www.w3.org/2000/svg"
  xmlns:xlink="http://www.w3.org/1999/xlink">
  <linearGradient id="a" gradientUnits="userSpaceOnUse" x1="248" x2="248" y1="496" y2="0">
    <stop offset="0" stop-color="#fff" />
    <stop offset="1" stop-color="#fff" />
  </linearGradient>
  <path
    d="m298.34375 370.34375 11.3125 11.3125-69.65625 69.65625-29.65625-29.65625 11.3125-11.3125 18.34375 18.34375zm21.65625-370.34375v16h16v-16zm-243.3125 328 23.710938-23.710938c-8.175782-15.023437-14.039063-31.296874-17.320313-48.289062h-51.078125v-16h48.839844c-.503906-5.289062-.839844-10.617188-.839844-16 0-8.167969.785156-16.136719 1.921875-24h-49.921875v-16h53.015625c3.480469-14.175781 8.601563-27.71875 15.433594-40.238281l-23.761719-23.761719h-44.6875v-16h51.3125l25.726562 25.726562c28.839844-42.375 76.578126-70.742187 130.960938-73.320312v-16.40625h-56v-16h56v-24h64v16h-48v40.40625c54.382812 2.585938 102.121094 30.945312 130.960938 73.320312l25.726562-25.726562h51.3125v16h-44.6875l-23.761719 23.761719c6.832031 12.519531 11.953125 26.0625 15.433594 40.238281h53.015625v16h-49.921875c1.136719 7.863281 1.921875 15.832031 1.921875 24 0 5.382812-.335938 10.710938-.839844 16h48.839844v16h-51.070312c-3.28125 17-9.144532 33.273438-17.320313 48.296875l23.703125 23.703125h44.6875v16h-51.3125l-25.6875-25.6875c-11.441406 16.847656-26.007812 31.671875-43.238281 43.648438-2.457031 52.65625-31.363281 101.519531-76.777344 128.773437-5.726563 3.441406-12.289063 5.265625-18.984375 5.265625s-13.257812-1.824219-18.984375-5.257812c-45.414063-27.253907-74.320313-76.109376-76.777344-128.773438-17.230469-11.976562-31.796875-26.808594-43.238281-43.648438l-25.6875 25.679688h-51.3125v-16zm88.074219 1.441406c11.558593 5.773438 24.902343 7.414063 37.664062 5.40625-6.914062-13.480468-13.722656-30.191406-18.730469-49.800781-27.261718 11.519531-45.421874 27.585937-53.175781 35.394531 6.375 7.75 13.570313 14.886719 21.480469 21.335938v-18.761719zm135.765625-65.730468c2.128906-12.277344 3.472656-25.464844 3.472656-39.710938 0-14.207031-1.34375-27.375-3.480469-39.710938-15.472656 4.640626-32.933593 7.710938-52.519531 7.710938-19.574219 0-37.03125-3.070312-52.503906-7.703125-2.144532 12.335937-3.496094 25.511719-3.496094 39.703125 0 14.246094 1.34375 27.433594 3.472656 39.710938 15.472656-4.640626 32.941406-7.710938 52.527344-7.710938s37.054688 3.070312 52.527344 7.710938zm-52.527344 8.289062c-18.351562 0-34.761719 3.015625-49.222656 7.542969 5.039062 20.34375 12.199218 37.386719 19.292968 50.746093 4.175782-1.832031 8.210938-3.984374 11.875-6.730468l18.054688-13.558594 18.070312 13.550781c3.65625 2.746094 7.691407 4.90625 11.859376 6.738281 7.09375-13.359374 14.253906-30.410156 19.292968-50.746093-14.460937-4.527344-30.871094-7.542969-49.222656-7.542969zm80 76.03125c-23.921875 7.863281-51.40625 3.417969-71.527344-11.679688l-8.472656-6.351562-8.464844 6.351562c-20.152344 15.097657-47.632812 19.542969-71.535156 11.679688v6.671875c0 49.824219 26.535156 96.6875 69.257812 122.320313 6.484376 3.886718 15.007813 3.886718 21.476563 0h.007813c42.722656-25.632813 69.257812-72.503907 69.257812-122.320313zm37.480469-27.589844c-7.753907-7.808594-25.914063-23.875-53.175781-35.394531-5.007813 19.609375-11.816407 36.320313-18.730469 49.800781 12.761719 2.007813 26.113281.367188 37.691406-5.414062l12.734375-6.417969v18.761719c7.910156-6.449219 15.105469-13.585938 21.480469-21.335938zm-49.609375-141.417968c2.519531 13.886718 4.128906 28.792968 4.128906 44.976562 0 16.207031-1.65625 31.113281-4.199219 44.953125 29.445313 11.773437 49.414063 28.671875 59.277344 38.390625 16.011719-24.390625 24.921875-53.191406 24.921875-83.34375 0-30.742188-9.238281-59.335938-24.992188-83.28125-9.878906 9.730469-29.800781 26.554688-59.136718 38.304688zm-48.144532-105.589844c13.792969 16.664062 33.847657 46.726562 44.671876 89.476562 27.144531-11.484375 45.257812-27.476562 53.035156-35.292968-23.945313-29.121094-58.53125-49.074219-97.707032-54.183594zm-68.902343 95.039062c14.457031 4.519532 30.847656 7.527344 49.175781 7.527344 18.34375 0 34.753906-3.015625 49.207031-7.535156-12.304687-49.609375-38.09375-81.359375-49.191406-93.160156-11.078125 11.832031-36.863281 43.671874-49.191406 93.167968zm-68.257813-40.855468c7.777344 7.816406 25.890625 23.808593 53.035156 35.292968 10.832032-42.75 30.878907-72.8125 44.671876-89.476562-39.175782 5.109375-73.761719 25.0625-97.707032 54.183594zm-9.644531 179.726562c9.863281-9.71875 29.832031-26.617188 59.277344-38.390625-2.542969-13.839844-4.199219-28.746094-4.199219-44.953125 0-16.183594 1.609375-31.089844 4.128906-44.976562-29.34375-11.75-49.257812-28.574219-59.136718-38.296876-15.753907 23.9375-24.992188 52.53125-24.992188 83.273438 0 30.144531 8.910156 58.953125 24.921875 83.34375zm-104.921875 20.65625h-16v16h16zm0-224h-16v16h16zm0 136h-16v16h16zm0-56h-16v16h16zm464 160h16v-16h-16zm0-224h16v-16h-16zm0 136h16v-16h-16zm0-56h16v-16h-16zm-328-176v16h16v-16zm0 0"
    fill="url(#a)" />
</svg>
