<svg xmlns="http://www.w3.org/2000/svg" xmlns:xlink="http://www.w3.org/1999/xlink" width="191.282" height="212" viewBox="0 0 191.282 212"><path d="M119.55,114.834c-4.407,0-7.97,3.958-7.97,8.833V159c0,4.867-3.571,8.833-7.971,8.833H79.7V35.334c0-7.544-4.336-14.284-10.855-16.792l-2.36-.875H103.61c4.4,0,7.971,3.966,7.971,8.834V53c0,4.875,3.562,8.833,7.97,8.833s7.97-3.958,7.97-8.833V26.5c0-14.61-10.728-26.5-23.91-26.5H17.933A5.728,5.728,0,0,0,17.08.2C16.7.16,16.33,0,15.941,0,7.149,0,0,7.924,0,17.667v159c0,7.544,4.336,14.284,10.855,16.792L58.819,211.18a15.019,15.019,0,0,0,4.941.822c8.791,0,15.939-7.924,15.939-17.667V185.5h23.91c13.182,0,23.91-11.89,23.91-26.5V123.667c0-4.875-3.562-8.833-7.97-8.833Zm0,0" transform="translate(0 -0.001)" fill="#57DCDD"/><path d="M190.419,78.34,158.537,43.007a7.41,7.41,0,0,0-8.686-1.918,8.909,8.909,0,0,0-4.918,8.163v26.5h-31.88c-4.4,0-7.971,3.956-7.971,8.833s3.571,8.833,7.971,8.833h31.88v26.5a8.909,8.909,0,0,0,4.918,8.163,7.412,7.412,0,0,0,8.686-1.917l31.881-35.334a9.513,9.513,0,0,0,0-12.49Zm0,0" transform="translate(-1.473 3.748)" fill="url(#a)"/></svg>